<svg id="logo" width="76" height="76" fill="none" xmlns="http://www.w3.org/2000/svg">

<g clip-path="url(#clip0_350_2)" fill-rule="evenodd" clip-rule="evenodd" >
<path d="M36.1446 -0.0742188C36.5899 -0.0742188 37.0353 -0.0742188 37.4806 -0.0742188C36.0364 2.56622 34.6263 5.23809 33.2501 7.94141C31.899 10.6433 30.7115 13.4142 29.6876 16.2539C28.8415 18.4054 28.4952 20.6319 28.6485 22.9336C28.7964 23.7736 29.2663 24.3427 30.0587 24.6406C36.4966 25.1694 42.9288 25.0951 49.3556 24.418C50.5293 25.8259 51.6673 27.2607 52.7696 28.7227C52.6999 28.8997 52.5514 28.9987 52.3243 29.0195C45.5311 30.085 38.7029 30.4807 31.8399 30.207C29.4841 35.5371 27.1091 40.8561 24.7149 46.1641C25.3384 46.367 25.9816 46.4412 26.6446 46.3867C27.5057 43.4821 28.4706 40.6122 29.5392 37.7773C30.3042 40.7863 31.0216 43.8045 31.6915 46.832C39.4469 47.176 47.1657 46.8297 54.8478 45.793C56.0284 47.3698 57.2654 48.9036 58.5587 50.3945C54.3543 51.2789 50.0991 51.8479 45.7931 52.1016C39.7051 52.4157 33.6191 52.3909 27.5353 52.0273C27.3374 52.0768 27.1394 52.1264 26.9415 52.1758C24.8751 54.476 23.2175 57.049 21.9688 59.8945C21.0319 61.8656 21.0815 63.7953 22.1173 65.6836C22.9629 66.6125 23.9772 67.2557 25.1603 67.6133C21.9761 67.3997 18.8095 67.0286 15.6603 66.5C13.1612 66.3709 11.2563 65.2576 9.94541 63.1602C9.17763 61.15 9.52398 59.3688 10.9845 57.8164C14.3419 53.8966 17.6818 49.963 21.004 46.0156C19.568 45.7179 18.1331 45.3714 16.6993 44.9766C13.4855 43.1857 13.0154 40.8355 15.2892 37.9258C19.0807 33.4914 22.8164 29.0134 26.4962 24.4922C25.3198 24.2393 24.1323 24.0414 22.9337 23.8984C20.3066 23.4545 19.1934 21.9454 19.5938 19.3711C24.3507 13.5755 29.0512 7.73693 33.6954 1.85547C34.3724 1.00185 35.1888 0.358619 36.1446 -0.0742188Z" fill="#3DAD52"/>
<path opacity="0.993" d="M37.4806 -0.0742188C38.2228 -0.0742188 38.965 -0.0742188 39.7072 -0.0742188C40.4669 0.212166 41.1348 0.657479 41.7111 1.26172C46.4534 7.33027 51.3022 13.3173 56.258 19.2227C56.8697 21.3391 56.1523 22.7987 54.1056 23.6016C52.5393 23.9773 50.9559 24.2493 49.3556 24.418C42.9289 25.0951 36.4966 25.1694 30.0587 24.6406C29.2664 24.3427 28.7964 23.7736 28.6486 22.9336C28.4952 20.6319 28.8415 18.4054 29.6876 16.2539C30.7116 13.4142 31.8991 10.6433 33.2501 7.94141C34.6263 5.23809 36.0365 2.56622 37.4806 -0.0742188Z" fill="#4CC067"/>
<path opacity="0.995" d="M52.7695 28.7227C55.6614 32.1262 58.5559 35.5402 61.4531 38.9648C62.5765 41.2251 62.1064 43.0806 60.043 44.5312C58.4078 45.3319 56.6761 45.7524 54.8477 45.793C47.1656 46.8297 39.4468 47.176 31.6914 46.832C31.0215 43.8045 30.3041 40.7863 29.5391 37.7773C28.4705 40.6122 27.5056 43.4821 26.6445 46.3867C25.9815 46.4412 25.3383 46.367 24.7148 46.1641C27.109 40.8561 29.484 35.5371 31.8398 30.207C38.7029 30.4807 45.531 30.085 52.3242 29.0195C52.5513 28.9987 52.6998 28.8997 52.7695 28.7227Z" fill="#4CC067"/>
<path opacity="0.992" d="M58.5585 50.3945C60.8776 53.1843 63.2278 55.9551 65.6093 58.707C67.0367 61.514 66.4182 63.7653 63.7539 65.4609C62.3097 66.1249 60.8005 66.5456 59.2265 66.7227C57.2401 64.2913 55.3104 61.8172 53.4374 59.3008C53.3632 62.0216 53.3384 64.7431 53.3632 67.4648C50.4993 67.7448 47.6295 67.9427 44.7538 68.0586C40.2005 68.2367 35.6484 68.2367 31.0976 68.0586C29.088 68.0212 27.1089 67.8728 25.1601 67.6133C23.977 67.2557 22.9628 66.6125 22.1171 65.6836C21.0813 63.7953 21.0318 61.8656 21.9687 59.8945C23.2173 57.049 24.8749 54.476 26.9413 52.1758C27.1392 52.1264 27.3372 52.0768 27.5351 52.0273C33.619 52.3909 39.7049 52.4157 45.7929 52.1016C50.0989 51.8479 54.3542 51.2789 58.5585 50.3945Z" fill="#4DC067"/>
<path opacity="0.98" d="M31.0977 68.0586C35.6485 68.2367 40.2006 68.2367 44.7539 68.0586C44.9779 68.9317 45.1263 69.8223 45.1992 70.7305C42.2563 70.8785 39.2875 70.9279 36.293 70.8789C36.293 72.5117 36.293 74.1445 36.293 75.7773C34.1749 75.5661 32.1462 75.0218 30.207 74.1445C30.1576 74.0455 30.108 73.9467 30.0586 73.8477C30.4212 71.9192 30.7675 69.9895 31.0977 68.0586Z" fill="#7F4A26"/>
<path d="M45.1992 70.7305C45.4263 71.6938 45.6243 72.6833 45.793 73.6992C45.7435 73.8477 45.694 73.9961 45.6445 74.1445C42.6687 75.4735 39.5515 76.0177 36.293 75.7774C36.293 74.1445 36.293 72.5117 36.293 70.8789C39.2875 70.9279 42.2563 70.8785 45.1992 70.7305Z" fill="#925C34"/>
</g>
</svg>
